<svg height="478" width="720" xmlns="http://www.w3.org/2000/svg">
<rect height="478" fill="#555" width="720"></rect>
<text fill="#7f7" font-family="Courier New" font-size="12" xml:space="preserve">
<tspan x="10" y="26">└─┬ lmd@1.13.4 </tspan>
<tspan x="10" y="42">  ├── colors@0.6.0-1 </tspan>
<tspan x="10" y="58">  ├── csso@1.3.12 </tspan>
<tspan x="10" y="74">  ├─┬ express@2.5.9 </tspan>
<tspan x="10" y="90">  │ ├─┬ connect@1.9.2 </tspan>
<tspan x="10" y="106">  │ │ └── formidable@1.0.17 </tspan>
<tspan x="10" y="122">  │ ├── mime@1.2.4 </tspan>
<tspan x="10" y="138">  │ ├── mkdirp@0.3.0 </tspan>
<tspan x="10" y="154">  │ └── qs@0.4.2 </tspan>
<tspan x="10" y="170">  ├─┬ glob@3.1.21 </tspan>
<tspan x="10" y="186">  │ ├── graceful-fs@1.2.3 </tspan>
<tspan x="10" y="202">  │ ├── inherits@1.0.2 </tspan>
<tspan x="10" y="218">  │ └─┬ minimatch@0.2.14 </tspan>
<tspan x="10" y="234">  │   ├── lru-cache@2.7.3 </tspan>
<tspan x="10" y="250">  │   └── sigmund@1.0.1 </tspan>
<tspan x="10" y="266">  ├─┬ jade@0.26.1 </tspan>
<tspan x="10" y="282">  │ └── commander@0.5.2 </tspan>
<tspan x="10" y="298">  ├── lodash-template@1.0.0 </tspan>
<tspan x="10" y="314">  ├─┬ optimist@0.3.7 </tspan>
<tspan x="10" y="330">  │ └── wordwrap@0.0.3 </tspan>
<tspan x="10" y="346">  ├─┬ readable-stream@1.0.34 </tspan>
<tspan x="10" y="362">  │ ├── core-util-is@1.0.2 </tspan>
<tspan x="10" y="378">  │ ├── inherits@2.0.3 </tspan>
<tspan x="10" y="394">  │ ├── isarray@0.0.1 </tspan>
<tspan x="10" y="410">  │ └── string_decoder@0.10.31 </tspan>
<tspan x="10" y="426">  ├─┬ source-map@0.1.43 </tspan>
<tspan x="10" y="442">  │ └── amdefine@1.0.1 </tspan>
<tspan x="10" y="458">  └── uglify-js@1.3.4</tspan>
</text>
</svg>
